<svg width="265" height="83" viewBox="0 0 265 83" fill="none" xmlns="http://www.w3.org/2000/svg">
<path d="M3.168 3.536L15.36 4.20799H29.28L41.472 3.536L41.952 0.751999H43.776L44.16 14.384H42.336L41.472 10.64L27.072 10.16L26.208 22.928V43.088L27.36 59.504L31.68 60.176L31.584 62H13.248L13.152 60.176L17.472 59.504L18.624 42.992V22.832L17.664 10.16L3.168 10.64L2.304 14.384H0.48L0.864 0.751999H2.688L3.168 3.536ZM53.265 59.504L54.417 42.992V22.832L53.265 6.512L50.385 5.84L50.481 4.016C60.849 3.76 67.729 3.632 71.121 3.632C85.649 3.632 92.913 9.2 92.913 20.336C92.913 25.328 91.409 29.264 88.401 32.144C85.457 35.024 81.201 36.592 75.633 36.848L95.217 59.504L98.193 60.176L98.097 62H79.377L79.281 59.984L83.313 59.504L72.945 44.432L63.153 33.2L63.345 32.24C71.537 31.984 77.009 31.088 79.761 29.552C82.577 28.016 83.985 25.072 83.985 20.72C83.985 13.168 79.569 9.392 70.737 9.392C68.241 9.392 65.617 9.744 62.865 10.448L62.001 22.928V43.088L63.153 59.504L67.185 59.984L67.089 62H50.481L50.385 60.176L53.265 59.504ZM106.328 59.504L107.48 42.992V22.832L106.328 6.41599L103.448 5.744L103.544 3.92H119L119.096 5.744L116.216 6.41599L115.064 22.928V43.088L116.216 59.504L119.096 60.176L119 62H103.544L103.448 60.176L106.328 59.504ZM133.515 59.504L134.667 42.992V22.832L133.515 6.512L130.635 5.84L130.731 4.016C142.379 3.76 149.131 3.632 150.987 3.632C165.131 3.632 172.203 9.52 172.203 21.296C172.203 27.312 170.027 31.92 165.675 35.12C161.323 38.256 154.827 39.824 146.187 39.824H142.347V43.088L143.499 59.504L147.339 59.984L147.243 62H130.731L130.635 60.176L133.515 59.504ZM150.219 9.392C147.723 9.392 145.387 9.744 143.211 10.448L142.347 22.928V33.2C143.307 33.456 145.355 33.584 148.491 33.584C153.803 33.584 157.579 32.688 159.819 30.896C162.123 29.04 163.275 26 163.275 21.776C163.275 13.52 158.923 9.392 150.219 9.392ZM179.541 4.112L191.925 3.056L190.965 21.104V45.008L191.733 59.504L197.493 60.176L197.397 62H179.925L179.829 60.176L182.709 59.504L183.573 45.008V21.104L182.709 6.608L179.445 5.936L179.541 4.112ZM192.693 40.88V40.208L201.141 32.048L204.981 26.192L200.661 25.712L200.757 23.696H217.941L218.037 25.52L215.157 26.192L201.333 39.824L216.981 59.504L219.957 60.176L219.861 62H207.093L202.389 53.264L192.693 40.88ZM242.52 22.256C246.424 22.256 249.784 23.056 252.6 24.656L264.408 21.776L263.832 28.496H256.632C257.976 30.608 258.648 33.104 258.648 35.984C258.648 40.656 257.08 44.336 253.944 47.024C250.872 49.648 246.616 50.96 241.176 50.96C238.488 50.96 236.024 50.608 233.784 49.904L230.904 54.8C233.016 56.08 237.304 56.72 243.768 56.72C250.232 56.72 254.68 57.52 257.112 59.12C259.608 60.72 260.856 63.248 260.856 66.704C260.856 71.568 258.776 75.44 254.616 78.32C250.52 81.2 244.984 82.64 238.008 82.64C227.256 82.64 221.88 79.472 221.88 73.136C221.88 69.168 224.152 65.616 228.696 62.48C226.264 61.584 225.048 59.952 225.048 57.584C225.048 55.216 226.68 51.984 229.944 47.888C226.744 45.456 225.144 41.904 225.144 37.232C225.144 32.56 226.68 28.912 229.752 26.288C232.888 23.6 237.144 22.256 242.52 22.256ZM238.872 77.456C243.16 77.456 246.68 76.688 249.432 75.152C252.184 73.616 253.56 71.76 253.56 69.584C253.56 67.408 252.632 65.872 250.776 64.976C248.92 64.144 245.944 63.728 241.848 63.728C237.752 63.728 234.68 63.6 232.632 63.344C230.264 65.776 229.08 68.432 229.08 71.312C229.08 75.408 232.344 77.456 238.872 77.456ZM241.848 27.344C236.024 27.344 233.112 30.448 233.112 36.656C233.112 42.8 236.024 45.872 241.848 45.872C247.736 45.872 250.68 42.736 250.68 36.464C250.68 33.328 249.944 31.024 248.472 29.552C247.064 28.08 244.856 27.344 241.848 27.344Z" fill="white"/>
</svg>
